<svg width="169" height="63" viewBox="0 0 169 63" fill="none" xmlns="http://www.w3.org/2000/svg">
<path d="M64.7593 1.35529C66.6054 1.20489 68.5456 1.30259 70.3449 1.75199C80.3103 4.2409 86.2858 14.6152 90.9785 22.944C93.5933 27.5849 96.0317 32.3476 98.8356 36.877C100.166 39.0273 101.583 41.1164 103.264 43.0083C103.614 43.4024 103.964 43.7803 104.377 44.1101C104.75 44.4086 105.33 44.7334 105.574 45.1399C106.645 44.8213 107.7 43.8427 108.491 43.0747C109.16 42.426 109.752 41.7033 110.364 41.0021C110.62 40.7092 111.031 40.3561 111.038 39.949C111.092 39.9897 111.1 39.9937 111.157 40.045C111.521 40.371 111.795 41.0148 112.035 41.4465C112.499 42.2813 112.985 43.1042 113.472 43.926C114.423 45.529 115.404 47.1275 116.439 48.6778C117.305 49.9743 118.209 51.2644 119.174 52.4889C119.707 53.1647 120.433 53.8451 120.881 54.5677C120.937 54.6572 120.949 54.7373 120.97 54.8385C120.932 54.9718 120.878 55.0656 120.786 55.1702C120.337 55.6836 119.737 56.1469 119.228 56.6047C115.925 59.5739 111.799 61.8745 107.312 62.2142C104.919 62.5369 102.281 62.085 100.012 61.3114C91.5321 58.4183 86.01 49.2312 81.7908 41.8546C79.0556 37.073 76.5584 32.1482 73.6994 27.4392C71.7391 24.2107 69.5393 20.5962 66.3377 18.4875C64.1209 19.576 62.2989 21.6458 60.8964 23.6514C58.1197 18.3797 54.8166 13.2522 50.9338 8.73174C54.9004 4.85102 59.1534 2.0509 64.7593 1.35529Z" fill="#0C886E"/>
<path d="M103.574 1.32052L104.683 1.2909C107.238 1.25726 109.731 1.85517 112.048 2.9209C116.961 5.18124 120.67 9.35765 123.728 13.7186C126.359 17.4717 128.586 21.4303 130.794 25.4402C133.63 30.5901 136.349 35.9515 139.817 40.7105C140.687 41.9046 141.64 43.0738 142.738 44.0635C143.145 44.4306 143.649 44.6977 144.029 45.0775L144.065 45.1142C144.418 44.9986 144.717 44.8272 145.027 44.626C146.077 43.9455 146.904 43.1024 147.75 42.1946C149.759 40.04 151.424 37.541 152.951 35.027C153.286 34.4755 153.892 33.7131 154.025 33.0898C154.767 33.3184 155.4 33.7702 156.066 34.155C157.36 34.9028 158.647 35.663 159.94 36.4133C161.049 37.0568 168.575 41.1996 168.899 41.7602L168.876 42.0089C168.679 42.6334 168.063 43.3996 167.719 43.966C165.107 48.2731 162.122 52.5672 158.396 55.987C157.87 56.4693 157.298 57.069 156.667 57.3953L156.607 57.5556C154.738 58.9931 152.811 60.2406 150.608 61.1052C148.342 61.9947 146.089 62.3273 143.663 62.2785C134.835 62.1012 128.696 55.1544 124.151 48.3287C121.536 44.4021 119.271 40.2475 117.017 36.1059C114.642 31.7398 112.263 27.2455 109.342 23.2197C108.197 21.6424 106.476 19.2794 104.642 18.4776C104.459 18.7384 104.009 18.9183 103.736 19.1046C103.254 19.4335 102.794 19.8049 102.359 20.1934C101.219 21.2123 100.231 22.4322 99.3232 23.6595C98.5777 22.1247 97.6217 20.6114 96.7329 19.1577C95.3783 16.9425 93.9983 14.7307 92.4697 12.6308C91.4982 11.2963 90.4358 10.0493 89.4049 8.76244C93.0206 4.66597 98.1614 1.8975 103.574 1.32052Z" fill="#05DF90"/>
<path d="M26.4974 1.29591C29.0479 1.24817 31.369 1.45621 33.7703 2.36878C42.6673 5.75003 48.117 15.3884 52.546 23.2504C55.6864 28.8246 58.5466 34.622 62.2047 39.8812C63.2257 41.3486 64.3714 42.8768 65.7291 44.0455C66.1825 44.4358 66.6588 44.8392 67.2128 45.0746C69.3154 43.7532 71.1401 42.0107 72.5353 39.9387C73.3458 41.1756 74.01 42.5095 74.7716 43.7784C77.0735 47.614 79.5123 51.4438 82.4988 54.7866L82.0098 55.3093C77.9744 59.3291 72.854 62.3151 67.0358 62.27C60.8783 62.2222 56.3341 59.0959 52.1722 54.8627C48.8564 51.3954 46.2279 47.0982 43.8112 42.9694C41.7909 39.5185 39.9284 35.9732 37.9774 32.482C35.7866 28.5618 33.567 24.4314 30.616 21.0275C29.9228 20.2278 29.0451 19.2629 28.1324 18.7225C27.9136 18.5927 27.7465 18.5225 27.4965 18.5921C26.9332 18.7495 26.256 19.3455 25.8129 19.716C24.055 21.1862 22.662 22.9958 21.3393 24.856C19.081 28.0314 17.2943 31.4025 15.3669 34.7754L0.101318 26.7432C0.92114 25.3696 1.62686 23.9097 2.41842 22.5159C4.57626 18.7169 6.99008 14.8558 9.81684 11.5208C14.1859 6.36617 19.4901 1.86102 26.4974 1.29591Z" fill="#12464A"/>
</svg>
